<svg width="20" height="14" viewBox="0 0 20 14" fill="none" xmlns="http://www.w3.org/2000/svg">
<path d="M1.99999 0.333344H8.66666C9.02028 0.333344 9.35942 0.473819 9.60946 0.723868C9.85951 0.973916 9.99999 1.31305 9.99999 1.66668C9.99999 2.0203 9.85951 2.35944 9.60946 2.60949C9.35942 2.85953 9.02028 3.00001 8.66666 3.00001H1.99999C1.64637 3.00001 1.30723 2.85953 1.05718 2.60949C0.807132 2.35944 0.666656 2.0203 0.666656 1.66668C0.666656 1.31305 0.807132 0.973916 1.05718 0.723868C1.30723 0.473819 1.64637 0.333344 1.99999 0.333344ZM11.3333 11H18C18.3536 11 18.6927 11.1405 18.9428 11.3905C19.1928 11.6406 19.3333 11.9797 19.3333 12.3333C19.3333 12.687 19.1928 13.0261 18.9428 13.2762C18.6927 13.5262 18.3536 13.6667 18 13.6667H11.3333C10.9797 13.6667 10.6406 13.5262 10.3905 13.2762C10.1405 13.0261 9.99999 12.687 9.99999 12.3333C9.99999 11.9797 10.1405 11.6406 10.3905 11.3905C10.6406 11.1405 10.9797 11 11.3333 11ZM1.99999 5.66668H18C18.3536 5.66668 18.6927 5.80715 18.9428 6.0572C19.1928 6.30725 19.3333 6.64639 19.3333 7.00001C19.3333 7.35363 19.1928 7.69277 18.9428 7.94282C18.6927 8.19287 18.3536 8.33334 18 8.33334H1.99999C1.64637 8.33334 1.30723 8.19287 1.05718 7.94282C0.807132 7.69277 0.666656 7.35363 0.666656 7.00001C0.666656 6.64639 0.807132 6.30725 1.05718 6.0572C1.30723 5.80715 1.64637 5.66668 1.99999 5.66668Z" fill="#131313"/>
</svg>
