<svg width="24" height="24" viewBox="0 0 24 24" fill="none" xmlns="http://www.w3.org/2000/svg">
<path d="M8.99998 14.25C9.6652 14.2498 10.3116 14.4708 10.8376 14.8781C11.3635 15.2854 11.7392 15.8559 11.9055 16.5H20.25C20.4374 16.4997 20.6182 16.5695 20.7567 16.6958C20.8952 16.822 20.9814 16.9956 20.9983 17.1822C21.0152 17.3689 20.9617 17.5551 20.8481 17.7042C20.7346 17.8534 20.5694 17.9546 20.385 17.988L20.25 18L11.9055 18.0015C11.7397 18.6461 11.3643 19.2174 10.8383 19.6252C10.3123 20.0331 9.66559 20.2545 8.99998 20.2545C8.33437 20.2545 7.68766 20.0331 7.16165 19.6252C6.63565 19.2174 6.26023 18.6461 6.09448 18.0015L3.74998 18C3.56256 18.0003 3.3818 17.9305 3.2433 17.8042C3.1048 17.678 3.0186 17.5044 3.00167 17.3178C2.98473 17.1311 3.03829 16.9449 3.15181 16.7958C3.26532 16.6466 3.43056 16.5454 3.61498 16.512L3.74998 16.5H6.09448C6.26078 15.8559 6.63645 15.2854 7.1624 14.8781C7.68835 14.4708 8.33476 14.2498 8.99998 14.25ZM8.99998 15.75C8.60215 15.75 8.22062 15.908 7.93932 16.1893C7.65801 16.4706 7.49998 16.8522 7.49998 17.25C7.49998 17.6478 7.65801 18.0294 7.93932 18.3107C8.22062 18.592 8.60215 18.75 8.99998 18.75C9.3978 18.75 9.77933 18.592 10.0606 18.3107C10.3419 18.0294 10.5 17.6478 10.5 17.25C10.5 16.8522 10.3419 16.4706 10.0606 16.1893C9.77933 15.908 9.3978 15.75 8.99998 15.75ZM15 3.75C15.6652 3.74983 16.3116 3.97076 16.8376 4.37806C17.3635 4.78535 17.7392 5.35591 17.9055 6H20.25C20.4374 5.99966 20.6182 6.06949 20.7567 6.19576C20.8952 6.32203 20.9814 6.49558 20.9983 6.68223C21.0152 6.86889 20.9617 7.05511 20.8481 7.20425C20.7346 7.35338 20.5694 7.45461 20.385 7.488L20.25 7.5L17.9055 7.5015C17.7397 8.14614 17.3643 8.71736 16.8383 9.12523C16.3123 9.5331 15.6656 9.75446 15 9.75446C14.3344 9.75446 13.6877 9.5331 13.1617 9.12523C12.6357 8.71736 12.2602 8.14614 12.0945 7.5015L3.74998 7.5C3.56256 7.50034 3.3818 7.43051 3.2433 7.30424C3.1048 7.17797 3.0186 7.00442 3.00167 6.81777C2.98473 6.63111 3.03829 6.44489 3.15181 6.29575C3.26532 6.14662 3.43056 6.04539 3.61498 6.012L3.74998 6H12.0945C12.2608 5.35591 12.6364 4.78535 13.1624 4.37806C13.6884 3.97076 14.3348 3.74983 15 3.75ZM15 5.25C14.6022 5.25 14.2206 5.40804 13.9393 5.68934C13.658 5.97064 13.5 6.35218 13.5 6.75C13.5 7.14782 13.658 7.52936 13.9393 7.81066C14.2206 8.09196 14.6022 8.25 15 8.25C15.3978 8.25 15.7793 8.09196 16.0606 7.81066C16.3419 7.52936 16.5 7.14782 16.5 6.75C16.5 6.35218 16.3419 5.97064 16.0606 5.68934C15.7793 5.40804 15.3978 5.25 15 5.25Z" fill="#BEBEBE"/>
</svg>
