<svg width="18" height="19" viewBox="0 0 18 19" fill="none" xmlns="http://www.w3.org/2000/svg">
<path d="M10.45 0.533014C10.0442 0.191036 9.53065 0.003479 9 0.003479C8.46935 0.003479 7.95577 0.191036 7.55 0.533014L0.8 6.22801C0.549459 6.43917 0.348059 6.70249 0.209877 6.99959C0.0716959 7.29668 6.77287e-05 7.62036 0 7.94801V17.253C0 18.219 0.784 19.003 1.75 19.003H4.75C5.21413 19.003 5.65925 18.8186 5.98744 18.4904C6.31563 18.1623 6.5 17.7171 6.5 17.253V13.25C6.5 12.57 7.042 12.018 7.717 12H10.283C10.6088 12.0086 10.9183 12.1441 11.1456 12.3776C11.373 12.6111 11.5001 12.9241 11.5 13.25V17.253C11.5 18.219 12.284 19.003 13.25 19.003H16.25C16.7141 19.003 17.1592 18.8186 17.4874 18.4904C17.8156 18.1623 18 17.7171 18 17.253V7.94701C17.9999 7.61936 17.9283 7.29568 17.7901 6.99858C17.6519 6.70149 17.4505 6.43817 17.2 6.22701L10.45 0.533014Z" fill="white"/>
</svg>
