<svg width="32" height="32" viewBox="0 0 32 32" fill="none" xmlns="http://www.w3.org/2000/svg">
<path fill-rule="evenodd" clip-rule="evenodd" d="M19.2734 3.29866C18.0168 2.79385 16.6606 2.58649 15.3106 2.69277C13.9606 2.79905 12.6535 3.21611 11.4914 3.91133C10.3294 4.60655 9.34386 5.5611 8.61189 6.70038C7.87992 7.83965 7.42135 9.13277 7.27202 10.4787L6.93602 13.5L6.92802 13.572C6.77762 14.883 6.3509 16.1473 5.67602 17.2813L5.63869 17.344L4.86802 18.628L4.83602 18.6813C4.51336 19.2187 4.22269 19.7053 4.02802 20.1173C3.83069 20.536 3.61869 21.104 3.72136 21.7493C3.82151 22.3859 4.14879 22.9647 4.64269 23.3787C5.14402 23.7973 5.73869 23.908 6.20002 23.9547C6.65336 24 7.22136 24 7.84669 24H24.1534C24.7787 24 25.3454 24 25.8 23.9547C26.26 23.908 26.856 23.7973 27.356 23.3787C27.8504 22.9649 28.1782 22.3861 28.2787 21.7493C28.3814 21.1053 28.1694 20.536 27.972 20.1173C27.7774 19.704 27.4867 19.2187 27.164 18.6813L27.132 18.628L26.3614 17.344L26.324 17.2813C25.82 16.4346 25.4532 15.5134 25.2374 14.552C24.3344 14.7214 23.4063 14.7033 22.5107 14.4987C22.7569 15.9631 23.2727 17.3691 24.032 18.6453L24.0747 18.716L24.8454 20C25.2094 20.608 25.4294 20.9773 25.56 21.2533L25.5787 21.296C25.5631 21.2979 25.5476 21.2997 25.532 21.3013C25.2294 21.332 24.7987 21.3333 24.0907 21.3333H7.90936C7.20136 21.3333 6.77069 21.332 6.46669 21.3013C6.45156 21.2997 6.43645 21.2979 6.42136 21.296L6.44002 21.2533C6.57069 20.9773 6.79069 20.608 7.15469 20L7.92535 18.716L7.96802 18.6453C8.83561 17.1872 9.38412 15.5617 9.57736 13.876L9.58669 13.796L9.92269 10.7733C10.0217 9.88055 10.3162 9.02054 10.7852 8.25447C11.2542 7.48839 11.8862 6.83505 12.6363 6.34091C13.3865 5.84677 14.2362 5.52396 15.1253 5.39545C16.0143 5.26693 16.9207 5.33586 17.78 5.59733C18.1133 4.73601 18.6218 3.95327 19.2734 3.29866ZM22.6427 5.704C22.1604 5.98906 21.7802 6.41877 21.5559 6.93214C21.3317 7.44551 21.2748 8.01647 21.3934 8.56399C21.5534 8.864 21.6894 9.17866 21.8 9.50666C22.1162 9.9695 22.5702 10.3208 23.0976 10.5107C23.625 10.7005 24.1988 10.7192 24.7374 10.564L24.728 10.4787C24.5338 8.71231 23.8064 7.04694 22.6427 5.704Z" fill="#131313"/>
<path d="M12.136 23.5533C12.364 24.8293 12.8667 25.956 13.5654 26.76C14.264 27.564 15.12 28 16 28C16.88 28 17.736 27.564 18.4347 26.76C19.1334 25.956 19.6347 24.8293 19.864 23.5533" stroke="#131313" stroke-width="2" stroke-linecap="round"/>
<path d="M23.5 13C25.9853 13 28 10.9853 28 8.5C28 6.01472 25.9853 4 23.5 4C21.0147 4 19 6.01472 19 8.5C19 10.9853 21.0147 13 23.5 13Z" fill="#ED1515"/>
</svg>
